{
  "accessors": [
    {
      "bufferView": 0,
      "componentType": 5126,
      "count": 86277,
      "max": [
        119.000297546387,
        222.957794189453,
        91.2958221435547
      ],
      "min": [
        -118.915100097656,
        -222.916107177734,
        -91.2679214477539
      ],
      "type": "VEC3"
    },
    {
      "bufferView": 1,
      "componentType": 5126,
      "count": 86277,
      "type": "VEC3"
    },
    {
      "bufferView": 2,
      "componentType": 5126,
      "count": 86277,
      "type": "VEC2"
    },
    {
      "bufferView": 3,
      "componentType": 5125,
      "count": 450000,
      "type": "SCALAR"
    }
  ],
  "asset": {
    "generator": "MeshSmith mesh conversion tool",
    "version": "2.0"
  },
  "bufferViews": [
    {
      "buffer": 0,
      "byteLength": 1035324,
      "target": 34962
    },
    {
      "buffer": 0,
      "byteLength": 1035324,
      "byteOffset": 1035324,
      "target": 34962
    },
    {
      "buffer": 0,
      "byteLength": 690216,
      "byteOffset": 2070648,
      "target": 34962
    },
    {
      "buffer": 0,
      "byteLength": 1800000,
      "byteOffset": 2760864,
      "target": 34963
    }
  ],
  "buffers": [
    {
      "byteLength": 4560864,
      "uri": "figure-of-a-dancer-150k-4096-web.bin"
    }
  ],
  "images": [
    {
      "uri": "figure-of-a-dancer-150k-4096-occlusion.jpg"
    },
    {
      "uri": "figure-of-a-dancer-150k-4096-normals.jpg"
    }
  ],
  "materials": [
    {
      "name": "default",
      "normalTexture": {
        "index": 1
      },
      "occlusionTexture": {
        "index": 0
      },
      "pbrMetallicRoughness": {
        "metallicFactor": 0.100000001490116,
        "roughnessFactor": 0.800000011920929
      }
    }
  ],
  "meshes": [
    {
      "primitives": [
        {
          "attributes": {
            "NORMAL": 1,
            "POSITION": 0,
            "TEXCOORD_0": 2
          },
          "indices": 3,
          "material": 0,
          "mode": 4
        }
      ]
    }
  ],
  "nodes": [
    {
      "mesh": 0
    }
  ],
  "scene": 0,
  "scenes": [
    {
      "nodes": [
        0
      ]
    }
  ],
  "textures": [
    {
      "source": 0
    },
    {
      "source": 1
    }
  ]
}