{
  "accessors": [
    {
      "bufferView": 0,
      "componentType": 5126,
      "count": 129029,
      "max": [
        11.9043798446655,
        7.91337919235229,
        18.7970905303955
      ],
      "min": [
        -11.9054403305054,
        -7.91311883926392,
        -18.796480178833
      ],
      "type": "VEC3"
    },
    {
      "bufferView": 1,
      "componentType": 5126,
      "count": 129029,
      "type": "VEC3"
    },
    {
      "bufferView": 2,
      "componentType": 5126,
      "count": 129029,
      "type": "VEC2"
    },
    {
      "bufferView": 3,
      "componentType": 5125,
      "count": 450000,
      "type": "SCALAR"
    }
  ],
  "asset": {
    "generator": "MeshSmith mesh conversion tool",
    "version": "2.0"
  },
  "bufferViews": [
    {
      "buffer": 0,
      "byteLength": 1548348,
      "target": 34962
    },
    {
      "buffer": 0,
      "byteLength": 1548348,
      "byteOffset": 1548348,
      "target": 34962
    },
    {
      "buffer": 0,
      "byteLength": 1032232,
      "byteOffset": 3096696,
      "target": 34962
    },
    {
      "buffer": 0,
      "byteLength": 1800000,
      "byteOffset": 4128928,
      "target": 34963
    }
  ],
  "buffers": [
    {
      "byteLength": 5928928,
      "uri": "Orbiter_Space_Shuttle_OV-103_Discovery-150k-4096.bin"
    }
  ],
  "images": [
    {
      "uri": "Orbiter_Space_Shuttle_OV-103_Discovery-150k-4096-diffuse.jpg"
    },
    {
      "uri": "Orbiter_Space_Shuttle_OV-103_Discovery-150k-4096-occlusion.jpg"
    },
    {
      "uri": "Orbiter_Space_Shuttle_OV-103_Discovery-150k-4096-normals.jpg"
    }
  ],
  "materials": [
    {
      "name": "default",
      "normalTexture": {
        "index": 2
      },
      "occlusionTexture": {
        "index": 1
      },
      "pbrMetallicRoughness": {
        "baseColorTexture": {
          "index": 0
        },
        "metallicFactor": 0.100000001490116,
        "roughnessFactor": 0.800000011920929
      }
    }
  ],
  "meshes": [
    {
      "primitives": [
        {
          "attributes": {
            "NORMAL": 1,
            "POSITION": 0,
            "TEXCOORD_0": 2
          },
          "indices": 3,
          "material": 0,
          "mode": 4
        }
      ]
    }
  ],
  "nodes": [
    {
      "mesh": 0
    }
  ],
  "scene": 0,
  "scenes": [
    {
      "nodes": [
        0
      ]
    }
  ],
  "textures": [
    {
      "source": 0
    },
    {
      "source": 1
    },
    {
      "source": 2
    }
  ]
}